# xmcd
#
# Track frame offsets:
#	150
#	3932
#	21765
#	40705
#	62135
#	80112
#	104092
#	129037
#	147192
#	166590
#	186905
#	208530
#	230285
#	255745
#	275880
#
# Disc length: 3899 seconds
#
# Revision: 3
# Processed by: cddbd v1.5.2PL0 Copyright (c) Steve Scherf et al.
# Submitted via: EasyCDDAExtractor 10.0.5.1
#
DISCID=ca0f390f
DTITLE=Various Artist - Famine 30 Rigbt Band Side右首
DYEAR=1992
DGENRE=Pop
TTITLE0=CR II Djs - CR II THEME SONG
TTITLE1=張學友 - 一起走過的日子
TTITLE2=譚詠麟 - 友誼永在
TTITLE3=林憶蓮 - 一輩子心情
TTITLE4=關淑怡 - 一切也願意
TTITLE5=葉蒨文 - 關懷
TTITLE6=草蜢 - 黃昏都市人
TTITLE7=鄺美雲 - 思想撲火
TTITLE8=張立基 - ELECTRIC GIRL
TTITLE9=呂方 - 你的淺笑
TTITLE10=太極 - 留住我吧
TTITLE11=Beyond - AMANI
TTITLE12=黄耀明 - 你真徫大TANGO IN MY FATHER'S HOUSE
TTITLE13=吳國敬 - 共渡一生
TTITLE14=得失錯對
EXTD=
EXTT0=
EXTT1=
EXTT2=
EXTT3=
EXTT4=
EXTT5=
EXTT6=
EXTT7=
EXTT8=
EXTT9=
EXTT10=
EXTT11=
EXTT12=
EXTT13=
EXTT14=
PLAYORDER=
